<svg xmlns="http://www.w3.org/2000/svg" width="80" height="36" viewBox="0 0 80 36">
    <g fill="none" fill-rule="evenodd">
        <g>
            <g>
                <path fill="#1B326D" d="M0.049 35.398L26.665 35.398 26.665 29.829 0.049 29.829z" transform="translate(-680 -30) translate(680 30)"/>
                <path fill="#CD232E" d="M26.665 35.398L53.281 35.398 53.281 29.829 26.665 29.829z" transform="translate(-680 -30) translate(680 30)"/>
                <path fill="#007235" d="M53.281 35.398L79.898 35.398 79.898 29.829 53.281 29.829z" transform="translate(-680 -30) translate(680 30)"/>
                <path fill="#FFF" d="M22.715 24.946c-.347.147-.71.218-1.086.218-.351 0-.692-.068-1.02-.19-.373-.134-.7-.357-.97-.642L5.635 9.71v12.432c0 1.487-1.213 2.7-2.7 2.7H.05V2.928c0-.568.163-1.098.487-1.564.31-.451.717-.795 1.217-1.02C2.254.12 2.853.07 3.39.175c.476.088.896.292 1.257.599.125.106.235.223.348.341l13.857 14.46V3.14c0-1.487 1.213-2.7 2.7-2.7h2.886v21.913c0 .745-.298 1.473-.826 2-.256.257-.561.455-.897.592zm11.123-13.208V6.027h13.217v2.847c0 .403-.055.81-.206 1.185-.41 1.021-1.58 1.679-2.66 1.679H33.837zm0 5.586h3.12l8.688 7.517h8.242l-8.71-7.521c2.22-.067 4.759-1.702 6.028-3.51.462-.665.804-1.403 1.047-2.173.28-.892.388-1.83.388-2.763V6.215c0-.63-.113-1.256-.298-1.857-.204-.687-.542-1.314-.987-1.875-.484-.617-1.099-1.094-1.791-1.458-.827-.43-1.759-.584-2.682-.584H31.061c-.752 0-1.479.279-2.007.822-.251.259-.448.56-.584.895-.147.348-.218.715-.218 1.092v21.591h2.886c1.487 0 2.7-1.213 2.7-2.7v-4.817zm31.7-4.79v-2.7h11.55c.761 0 1.476.292 2.008.839.519.534.802 1.219.802 1.965v9.394c0 .756-.273 1.463-.81 2-.531.532-1.25.81-2 .81H62.055c-.466 0-.932-.057-1.388-.153-.502-.105-.99-.26-1.458-.474-.493-.218-.956-.496-1.382-.827-.466-.353-.866-.782-1.2-1.26-.365-.517-.63-1.095-.822-1.696-.224-.693-.308-1.422-.308-2.148V6.998c0-.464.057-.93.152-1.384.1-.502.26-.99.467-1.458.222-.5.509-.966.848-1.395.362-.458.785-.855 1.263-1.19.514-.364 1.085-.63 1.684-.822C60.6.523 61.33.44 62.055.44h17.651v2.886c0 1.487-1.212 2.7-2.7 2.7H62.056c-.364 0-.612.08-.767.254-.146.163-.21.41-.21.75v11.253c0 .259.044.547.234.739.195.19.481.232.743.232h12.257v-3.807h-6.073c-1.487 0-2.7-1.213-2.7-2.7v-.214z" transform="translate(-680 -30) translate(680 30)"/>
            </g>
        </g>
    </g>
</svg>
