<svg xmlns="http://www.w3.org/2000/svg" width="53" height="51" viewBox="0 0 53 51">
    <g fill="none" fill-rule="evenodd">
        <g fill="#FFF">
            <g>
                <path d="M38.456 44.969c.076-1.977.147-3.805.204-5.511l.214-5.256c-.525-.162-1.035-.385-1.52-.668-.252-.147-.335-.467-.187-.716.148-.247.47-.332.722-.184.761.444 1.594.714 2.443.809.034.004.068.008.101.01l-.101-.01c.077.008.155.016.232.021l-.13-.01c.447.04.901.034 1.352-.02.043-.005.087-.01.13-.017l-.13.018.18-.024-.05.006c.78-.112 1.544-.374 2.247-.783.252-.146.575-.063.72.184.15.249.067.57-.184.716-.486.283-.997.506-1.522.668l.193 5.254c.053 1.28.105 2.63.16 4.062.072 1.852.15 3.838.237 5.98l6.45.002c.29 0 .528.235.528.523 0 .289-.237.522-.528.522H2.742c-.292 0-.528-.233-.528-.522 0-.288.236-.523.528-.523h9.477l.02-.492c.181-4.607.338-8.734.478-12.449l.364-9.44c-.793-.23-1.563-.555-2.294-.978-.25-.146-.336-.465-.189-.715.148-.247.47-.332.722-.187.745.432 1.537.75 2.352.957.027 0 .053.004.079.01 1.433.354 2.948.354 4.383 0l.079-.01c.814-.207 1.605-.525 2.35-.957.25-.146.573-.062.721.187.148.25.063.57-.189.715-.73.422-1.5.748-2.292.977l.36 9.367c.146 3.865.31 8.178.501 13.013l18.619.002.046-1.242c.043-1.14.086-2.236.127-3.29zm3.674-10.526l-.054.008c-.348.05-.699.075-1.05.075-.232 0-.464-.01-.695-.033l-.15-.015-.156-.02-.105-.014-.205 5.052c-.058 1.705-.129 3.535-.206 5.514-.055 1.417-.113 2.911-.171 4.49h3.373c-.087-2.127-.163-4.101-.235-5.943-.055-1.43-.107-2.78-.16-4.061l-.186-5.053zM15.94 27.522c-.607 0-1.215-.053-1.815-.16l-.354 9.236c-.146 3.837-.307 8.113-.498 12.902h5.335c-.192-4.82-.355-9.12-.501-12.976l-.352-9.163c-.6.108-1.207.161-1.815.161zm26.402-12.463c.278 0 .509.215.526.49.046.74.093 1.538.143 2.397l.385 6.302c.723.582 1.229 1.423 1.373 2.382l7.266 4.809c.233.155.303.466.156.704-.115.189-.225.377-.334.564-.109.188-.219.375-.334.564-.115.218-.252.457-.389.694-.084.145-.167.29-.247.435-.097.173-.276.27-.464.27-.08 0-.16-.017-.237-.055l-1.786-.889c-.726-.36-1.5-.744-2.328-1.158l-3.702-1.84c-.418.16-.871.246-1.345.246-.473 0-.926-.087-1.344-.246l-3.952 1.964c-1.461.72-2.736 1.349-3.861 1.921-.077.04-.159.058-.241.058-.18 0-.352-.09-.452-.251-.165-.27-.32-.54-.478-.818l-.196-.342c-.108-.193-.215-.378-.324-.562-.11-.192-.223-.383-.328-.574-.131-.235-.06-.53.163-.682.72-.49 1.511-1.014 2.373-1.585l4.897-3.227c.144-.958.649-1.799 1.371-2.38l.237-4.104c.06-.987.119-1.898.174-2.75l.119-1.846c.017-.276.248-.491.526-.491h2.633zm-5.041 12.81l-4.329 2.855c-.702.466-1.356.9-1.964 1.309l.083.142c.112.191.223.383.33.574l.195.338c.07.126.142.25.213.373 1.017-.514 2.152-1.074 3.429-1.703l3.335-1.658c-.378-.319-.688-.709-.917-1.143l-.062-.124-.024-.052-.016-.034c-.123-.27-.214-.558-.27-.858l-.003-.018zm7.448 0l-.015.086c-.09.439-.256.85-.485 1.22-.212.347-.479.66-.791.924l3.09 1.537c.826.413 1.599.797 2.323 1.157l1.341.666c.003-.003.005-.009.007-.012.13-.225.262-.453.386-.689.127-.21.232-.392.34-.573.029-.052.058-.103.09-.154L44.75 27.87zm-5.273-2.905c-.035.024-.071.045-.11.06-.572.438-.965 1.097-1.053 1.85.006.057.002.116-.012.173l-.004.023c-.002.041-.003.083-.003.124 0 .087.004.172.012.257l.01.093-.01-.093.015.13-.004-.037c.007.057.016.113.027.169l-.023-.132c.01.063.02.127.034.189l-.011-.057c.012.064.027.127.044.19l-.033-.133c.013.06.028.12.045.178l-.012-.045c.013.051.028.101.045.15l-.033-.105c.017.06.036.12.058.179l-.025-.073c.019.058.04.115.063.172l-.038-.1c.018.052.038.103.06.152l-.022-.052c.015.037.03.073.047.11l-.025-.058c.42.97 1.386 1.652 2.507 1.652 1.146 0 2.129-.71 2.533-1.715.035-.086.065-.174.09-.263l.02-.068-.02.068c.018-.06.033-.121.046-.183l-.026.115c.015-.058.028-.118.04-.178l-.014.063c.014-.062.025-.125.034-.188l-.02.125c.01-.053.018-.108.025-.163l-.005.038c.006-.043.011-.087.015-.13l-.01.092c.015-.114.023-.23.023-.349l-.004-.138-.002-.01c-.008-.041-.012-.082-.01-.122-.074-.773-.471-1.452-1.054-1.9-.04-.015-.077-.035-.112-.06-.907-.653-2.191-.653-3.098 0zM17.842 0c.278 0 .509.213.525.489.1 1.504.198 3.175.306 5.023l.455 7.609c1.05.813 1.78 2.018 1.971 3.393l5.036 3.333c1.505 1.002 2.887 1.916 4.147 2.75l1.367.905c.23.152.301.454.164.692-.16.28-.327.56-.495.84-.156.264-.313.527-.465.79-.156.269-.312.545-.468.82-.157.279-.315.557-.472.83-.097.167-.275.263-.46.263-.078 0-.158-.017-.233-.055-.86-.425-1.773-.882-2.747-1.369-.988-.493-2.04-1.018-3.166-1.576l-5.4-2.69c-.607.248-1.27.384-1.966.384-.703 0-1.374-.14-1.986-.393L8.288 24.88c-2.096 1.049-3.965 1.983-5.624 2.802-.077.038-.156.055-.235.055-.185 0-.362-.096-.46-.263-.153-.266-.305-.535-.458-.806-.16-.282-.32-.566-.48-.844-.311-.539-.623-1.079-.953-1.617-.149-.24-.078-.553.158-.707 1.58-1.033 3.335-2.204 5.327-3.53l5.221-3.454c.19-1.375.921-2.58 1.97-3.395l.364-6.03c.06-1.03.121-2.006.179-2.934.081-1.31.155-2.526.217-3.663.014-.277.246-.494.527-.494h3.8zm20.234 21.038c.148.249.065.569-.186.716-1.94 1.133-3.145 3.217-3.145 5.44 0 .289-.236.522-.528.522-.29 0-.527-.233-.527-.522 0-2.59 1.404-5.02 3.663-6.34.252-.146.574-.064.723.184zm6.625-.183c2.246 1.325 3.641 3.755 3.641 6.34 0 .288-.236.521-.527.521-.291 0-.528-.233-.528-.522 0-2.219-1.198-4.304-3.127-5.442-.25-.147-.332-.468-.182-.715.149-.249.472-.33.723-.182zm-33.935-3.07l-4.614 3.052c-1.818 1.21-3.44 2.293-4.913 3.259.242.403.474.807.707 1.21.163.28.324.566.486.853l.208.367c1.544-.764 3.264-1.624 5.173-2.579l5.044-2.53c-1.12-.825-1.9-2.089-2.081-3.535l-.01-.098zm10.352 0l-.01.097c-.171 1.36-.87 2.558-1.884 3.383l-.04.032c-.046.036-.092.072-.14.107-.01.009-.02.017-.032.025l4.769 2.375c1.126.557 2.178 1.082 3.167 1.578l1.177.588 1.118.555.223-.39c.156-.279.313-.557.47-.83.155-.267.315-.535.473-.802.082-.135.162-.27.242-.405l-.955-.632c-1.261-.835-2.643-1.75-4.149-2.753l-4.43-2.929zm20.728-1.682h-1.64l-.087 1.36c-.056.85-.116 1.76-.174 2.744l-.197 3.428c.4-.144.83-.222 1.278-.222.447 0 .876.077 1.274.22l-.342-5.627c-.039-.671-.075-1.304-.112-1.903zm-27.102-2.85l-.16.05c-1.508.524-2.624 1.896-2.776 3.544.002.013 0 .026 0 .04l-.007.049-.005.087-.005.208c0 1.607.937 3.077 2.389 3.746.036.017.07.037.1.06.508.226 1.07.35 1.661.35.886 0 1.708-.279 2.383-.754l.059-.042-.059.042c.041-.028.081-.058.121-.088l-.062.046c1.058-.778 1.71-2.026 1.71-3.36 0-1.806-1.156-3.346-2.766-3.918l-.189-.06c-.771-.22-1.622-.22-2.394 0zm1.197 1.45c1.386 0 2.512 1.134 2.512 2.528 0 1.382-1.126 2.506-2.512 2.506-1.384 0-2.51-1.124-2.51-2.506 0-1.394 1.126-2.527 2.51-2.527zm0 1.045c-.802 0-1.457.665-1.457 1.483 0 .792.668 1.462 1.457 1.462.804 0 1.458-.656 1.458-1.462 0-.818-.654-1.483-1.458-1.483zm-4.431-7.26c.146.248.063.568-.19.713-2.854 1.654-4.627 4.73-4.627 8.03 0 .288-.234.522-.526.522-.291 0-.528-.234-.528-.522 0-3.669 1.973-7.09 5.148-8.93.252-.148.575-.062.723.187zm9.585-.187c3.175 1.84 5.149 5.26 5.149 8.93 0 .288-.236.522-.528.522-.29 0-.527-.234-.527-.522 0-3.3-1.772-6.376-4.626-8.03-.252-.145-.337-.465-.19-.713.149-.248.471-.334.722-.187zm-3.747-7.256H14.54c-.056.994-.12 2.05-.19 3.176-.057.927-.118 1.903-.179 2.932l-.32 5.303c.51-.223 1.062-.36 1.638-.408l.046-.002c.056-.005.112-.009.168-.01.08-.004.159-.006.238-.006.08 0 .16.002.238.005l-.238-.005c.137 0 .272.005.407.015l.046.004c.576.047 1.128.184 1.637.407l-.41-6.884-.082-1.378c-.066-1.12-.13-2.169-.191-3.15z" transform="translate(-531 -360) translate(531 360)"/>
            </g>
        </g>
    </g>
</svg>
