<svg xmlns="http://www.w3.org/2000/svg" width="46" height="52" viewBox="0 0 46 52">
    <g fill="none" fill-rule="evenodd">
        <g>
            <g>
                <path fill="#FFF" d="M38.683 44.562c-1.676 0-3.247-.781-4.254-2.078-1.019 1.297-2.587 2.078-4.247 2.078-1.666 0-3.229-.781-4.235-2.078-1.019 1.297-2.588 2.078-4.247 2.078-1.659 0-3.228-.781-4.247-2.078-1.005 1.297-2.569 2.078-4.235 2.078-1.659 0-3.227-.781-4.247-2.078-1.007 1.297-2.578 2.078-4.254 2.078-1.92 0-3.704-1.037-4.654-2.706-.133-.232-.05-.525.184-.655.235-.132.53-.05.661.183.78 1.367 2.24 2.216 3.81 2.216 1.581 0 3.048-.85 3.826-2.216.086-.151.246-.245.421-.246h.003c.173 0 .334.092.42.242.798 1.37 2.266 2.22 3.83 2.22 1.57 0 3.03-.85 3.81-2.216.084-.151.245-.245.42-.246h.002c.173 0 .333.092.42.242.798 1.37 2.266 2.22 3.83 2.22s3.032-.85 3.83-2.22c.087-.15.247-.242.421-.242h.002c.175 0 .335.095.421.246.78 1.367 2.238 2.216 3.808 2.216 1.565 0 3.032-.85 3.83-2.22.087-.15.247-.242.421-.242h.002c.175 0 .335.095.42.246.78 1.367 2.246 2.216 3.828 2.216 1.571 0 3.03-.85 3.81-2.216.13-.232.426-.315.66-.183.234.13.317.423.185.655-.95 1.669-2.734 2.706-4.655 2.706M34.433 50.6c-1.664 0-3.232-.773-4.247-2.058-1.002 1.285-2.565 2.059-4.235 2.059-1.68 0-3.25-.774-4.254-2.06-1.016 1.286-2.583 2.06-4.247 2.06-1.67 0-3.234-.774-4.235-2.06-1.015 1.286-2.583 2.06-4.247 2.06-1.918 0-3.708-1.028-4.672-2.682-.134-.231-.054-.525.178-.658.233-.13.53-.052.664.177.791 1.358 2.258 2.2 3.83 2.2 1.571 0 3.04-.842 3.83-2.2.086-.15.247-.241.42-.241h.003c.174 0 .335.095.42.245.772 1.356 2.232 2.197 3.81 2.197 1.57 0 3.038-.843 3.83-2.201.086-.15.246-.241.42-.241h.001c.175 0 .335.095.421.245.772 1.356 2.24 2.197 3.828 2.197 1.577 0 3.036-.841 3.808-2.197.086-.15.246-.244.42-.245h.003c.174 0 .334.092.421.24.791 1.359 2.258 2.202 3.83 2.202 1.571 0 3.04-.843 3.83-2.201.133-.23.43-.307.663-.177.232.133.312.427.178.658-.963 1.654-2.754 2.682-4.67 2.682" transform="translate(-1011 -361) translate(1012 362)"/>
                <path stroke="#FFF" d="M0 36.728L6.698 0 9.615 0 8.656 36.728z" transform="translate(-1011 -361) translate(1012 362)"/>
                <path stroke="#FFF" d="M34 36.728L40.698 0 43.615 0 42.656 36.728z" transform="translate(-1011 -361) translate(1012 362) matrix(-1 0 0 1 77.615 0)"/>
                <path stroke="#FFF" d="M9.885 2.818L34.385 2.818M11.775 9.286L11 9.286 11 5.286 17 5.286 17 9.286 16.391 9.286M19.475 9.286L18.7 9.286 18.7 5.286 24.7 5.286 24.7 9.286 24.091 9.286M27.275 9.286L26.5 9.286 26.5 5.286 32.5 5.286 32.5 9.286 31.891 9.286" transform="translate(-1011 -361) translate(1012 362)"/>
                <path stroke="#FFF" d="M10.692 43.13c-.326-6.078-.405-10.137-.239-12.175.432-5.275 1.617-9.837 1.74-13.065.155-4.038.092-7.095-.188-9.172h0c-.126-.94.533-1.805 1.473-1.931.076-.01.153-.016.23-.016 0 0 0 0 0 0s0 0 0 0c1.248 0 2.309.915 2.491 2.15.354 2.39.62 5.538.801 9.443.152 3.301-.546 7.896-.461 13.495.026 1.776.373 5.107 1.04 9.993M19.325 43.445c-.167-6.224-.167-10.355 0-12.394.432-5.275.713-9.817.38-12.687-.467-4.036-.55-7.248-.25-9.636h0c.14-1.118 1.091-1.957 2.218-1.957 0 0 0 0 0 0s0 0 0 0c1.163 0 2.106.943 2.106 2.106 0 .031 0 .062-.002.094-.106 2.384-.07 5.515.11 9.393.152 3.301-.085 7.087 0 12.687.026 1.775.652 5.407 1.876 10.895M27.2 42.85c.748-5.92 1.205-9.9 1.372-11.938.431-5.275-.895-10.936-.772-14.164.144-3.754.074-6.455-.211-8.1h0c-.152-.873.433-1.702 1.305-1.853.09-.016.182-.024.274-.024 0 0 0 0 0 0s0 0 0 0c1.221 0 2.222.97 2.26 2.19.074 2.386.2 5.52.38 9.403.152 3.301 1.61 7.692 1.694 13.292.027 1.775-.146 5.6-.52 11.475" transform="translate(-1011 -361) translate(1012 362)"/>
            </g>
        </g>
    </g>
</svg>
