<svg xmlns="http://www.w3.org/2000/svg" width="45" height="51" viewBox="0 0 45 51">
    <g fill="none" fill-rule="evenodd">
        <g fill="#FFF">
            <path d="M96.694 389.328c.378 1.034.276 2.077-.28 2.86-.557.786-1.52 1.238-2.642 1.238H79.534v15.641h5.391c.306 0 .551.246.551.548 0 .3-.245.545-.55.545h-20.93c-.305 0-.551-.244-.551-.545 0-.302.246-.548.55-.548h5.369v-15.641H55.127c-1.132 0-2.063-.436-2.623-1.228-.555-.786-.658-1.83-.277-2.87.103-.284.419-.43.706-.327.287.103.434.417.33.7-.26.71-.208 1.374.144 1.87.349.492.96.763 1.72.763h38.645c.768 0 1.386-.274 1.737-.773.353-.496.406-1.156.148-1.86-.104-.283.044-.597.33-.7.289-.101.603.044.707.327zm-18.263 4.098h-7.963v15.641h7.963v-15.64zM85.581 360c1.411 0 2.734.73 3.077 1.7.512 1.538 1.068 3.192 1.674 4.986l.009.019c.404 1.173.829 2.402 1.252 3.704l.218.647.112.319c.453 1.293.924 2.677 1.412 4.14l.015.063c.957 2.803 2.012 5.901 3.175 9.35.39 1.158.263 2.302-.347 3.14-.566.78-1.475 1.208-2.558 1.208H55.28c-1.084 0-1.992-.428-2.56-1.208-.608-.838-.734-1.982-.345-3.14 1.523-4.458 2.833-8.33 3.99-11.749l.757-2.229.08-.241.073-.213 1.126-3.318.07-.206c.03-.087.058-.173.086-.259l.01-.028.084-.243c.576-1.698 1.111-3.272 1.612-4.738.344-.974 1.657-1.704 3.057-1.704H85.58zm-17.864 16.231H56.495c-.924 2.727-1.941 5.723-3.074 9.047-.278.816-.205 1.601.195 2.152.353.485.945.753 1.663.753h11.084l.057-.501c.328-2.932.635-5.628.917-8.11l.38-3.34zm12.364 0H68.827c-.125 1.106-.256 2.26-.394 3.463-.294 2.588-.615 5.409-.958 8.49h13.95c-.505-4.512-.949-8.463-1.344-11.952zm12.328 0H81.192c.395 3.49.838 7.442 1.342 11.951l11.086.001c.72 0 1.31-.268 1.663-.753.4-.55.471-1.336.195-2.155-1.12-3.324-2.14-6.322-3.069-9.044zm-23.7-8.804h-9.227c-.383 1.158-.8 2.366-1.234 3.63-.248.742-.509 1.513-.776 2.307-.196.578-.396 1.17-.598 1.776H67.84c.171-1.52.33-2.95.479-4.297l.389-3.416zm10.369 0h-9.257l-.405 3.536c-.144 1.312-.3 2.702-.465 4.177h11.007l-.475-4.177-.405-3.536zm10.34-.001l-9.229.001.39 3.414.49 4.298h10.968l-.42-1.23-.832-2.449-.133-.377-.104-.32-.498-1.466-.632-1.871zm-19.986-6.334h-6.113c-.986 0-1.852.51-2.013.968-.454 1.328-.938 2.75-1.455 4.274l8.983.001c.218-1.904.417-3.643.598-5.243zm8.927 0h-7.817c-.18 1.6-.379 3.34-.596 5.242h9.008c-.218-1.901-.416-3.641-.595-5.241zm7.221 0h-6.112l.007.064c.178 1.583.375 3.303.59 5.18l8.985-.002c-.515-1.528-.993-2.95-1.437-4.283-.158-.45-1.034-.958-2.033-.958z" transform="translate(-52 -360)"/>
        </g>
    </g>
</svg>
