<svg xmlns="http://www.w3.org/2000/svg" width="59" height="66" viewBox="0 0 59 66">
    <g fill="none" fill-rule="evenodd">
        <g fill="#FFF">
            <path d="M570.03 597.824c.503.451.621 1.286.361 2.553-.416 2.148-2.713 3.268-5.373 4.564-.622.304-1.267.618-1.915.958-.806.474-1.237.994-1.197 1.453.051.59.851 1.244 2.087 1.708 2.582.966 7.466 1.148 10.275-1.468 2.847-3.566 4.99-5.662 7.501-5.828 1.664-.111 2.653.212 3.022.989.764 1.61-1.694 4.373-4.503 7.304-7.13 7.475-13.229 8.675-20.644 8.675-1.661 0-3.388-.06-5.207-.124-1.935-.067-3.932-.137-6.096-.148l-.002 1.286c0 .266-.217.481-.485.481l-2.38-.001v.655c0 .265-.218.481-.486.481h-12.502c-.269 0-.486-.216-.486-.481v-17.329c0-.266.217-.481.486-.481h12.502c.268 0 .486.215.486.481v.654h2.38c.268 0 .485.215.485.48l.001 1.248c3.097-.026 3.399-.32 4.392-1.295.556-.546 1.318-1.293 2.773-2.274 2.884-1.943 5.636-2.71 9.119-3.682 1.14-.318 2.32-.647 3.647-1.053.765-.234 1.354-.168 1.759.194zm-25.528 6.208h-11.53V620.4h11.53v-.643-15.725zm2.867 1.136l-1.895-.001v14.098l1.895.001v-14.098zm21.188-6.619c-1.338.409-2.576.754-3.67 1.059-3.531.986-6.082 1.698-8.836 3.553-1.381.93-2.106 1.642-2.636 2.161-1.217 1.194-1.718 1.546-5.076 1.574v10.602c2.181.012 4.188.082 6.132.149 10.049.35 16.686.582 25.111-8.251 1.46-1.523 4.875-5.085 4.33-6.234-.168-.356-.925-.517-2.079-.438-2.157.142-4.136 2.121-6.825 5.492-.014.017-.03.034-.047.05-2.927 2.756-8.012 2.93-11.312 1.692-1.66-.622-2.623-1.518-2.711-2.523-.053-.599.198-1.498 1.689-2.374.677-.356 1.331-.675 1.962-.982 2.427-1.183 4.524-2.205 4.849-3.888.257-1.255.019-1.583-.061-1.654-.129-.115-.418-.111-.82.012zM565.699 556c.267 0 .485.216.485.481v11.26c1.375.052 2.696.318 3.931.766l2.346-5.743c.101-.247.384-.365.632-.266.248.1.369.38.269.626l-2.347 5.749c1.292.583 2.473 1.371 3.5 2.324l7.956-7.957c.189-.187.496-.189.688-.004.189.188.191.491.003.681l-7.963 7.964c.91.979 1.67 2.098 2.245 3.322l5.7-2.411c.247-.104.532.009.638.253.105.244-.009.527-.256.631l-5.705 2.413c.492 1.29.784 2.679.837 4.127h11.255c.268 0 .486.215.486.48 0 .266-.218.482-.486.482h-11.255c-.05 1.379-.317 2.703-.768 3.94l5.744 2.326c.248.101.368.382.266.627-.077.187-.258.299-.449.299-.062 0-.124-.011-.184-.036l-5.74-2.324c-.584 1.294-1.375 2.476-2.33 3.503l7.965 7.963c.188.188.186.493-.003.68-.095.092-.219.139-.342.139-.126 0-.25-.048-.346-.143l-7.958-7.955c-.979.908-2.098 1.667-3.32 2.241l2.416 5.71c.103.245-.013.527-.261.629-.06.026-.124.037-.187.037-.19 0-.369-.11-.449-.295l-2.414-5.701c-1.286.49-2.67.78-4.115.833l.001 2.896c0 .083-.218.151-.485.151-.269 0-.487-.068-.487-.151v-2.896c-1.378-.051-2.702-.318-3.938-.768l-2.318 5.725c-.076.188-.259.302-.451.302-.06 0-.121-.011-.181-.034-.248-.099-.369-.379-.27-.626l2.32-5.733c-1.29-.583-2.467-1.37-3.491-2.321l-7.958 7.956c-.094.095-.219.143-.344.143-.123 0-.247-.047-.342-.139-.191-.187-.193-.492-.004-.68l7.964-7.963c-.915-.984-1.679-2.11-2.255-3.341l-5.692 2.41c-.062.026-.127.039-.191.039-.188 0-.368-.109-.446-.292-.106-.244.009-.527.256-.631l5.698-2.412c-.488-1.285-.777-2.666-.83-4.107l-11.236-.001c-.269 0-.486-.216-.486-.482 0-.265.217-.48.486-.48h11.236c.05-1.382.318-2.71.77-3.95l-5.729-2.337c-.248-.102-.366-.383-.264-.628.103-.245.387-.361.634-.262l5.723 2.336c.584-1.29 1.373-2.47 2.325-3.494l-7.963-7.964c-.189-.19-.187-.493.004-.681.191-.185.499-.183.686.004l7.958 7.957c.983-.913 2.108-1.675 3.337-2.25l-2.413-5.702c-.103-.245.012-.526.26-.629.245-.103.531.013.636.258l2.41 5.695c1.283-.485 2.661-.774 4.098-.827l.001-11.261c0-.265.218-.481.487-.481zm0 12.695c-1.649 0-3.221.334-4.653.94-.001.002-.004.003-.007.004-2.902 1.229-5.217 3.56-6.424 6.464-.007.027-.016.055-.027.083l-.03.056c-.553 1.378-.857 2.881-.857 4.454 0 4.998 3.07 9.292 7.421 11.095.022.004.043.01.064.019l.057.03c1.378.553 2.882.858 4.456.858 6.614 0 11.996-5.384 11.996-12.002 0-6.617-5.382-12.001-11.996-12.001zm1.134 2.433c.241.115.342.403.226.641l-3.626 7.427h6.054c.169 0 .324.086.413.228.089.141.097.318.022.467l-3.751 7.467 2.544-.974c.249-.098.532.027.628.274.098.248-.027.527-.276.622l-3.711 1.423-.014.005h-.002l-.02.007v.001h-.002c-.045.013-.092.019-.14.019-.069 0-.14-.014-.208-.046l-.001-.001-.008-.004h-.002c-.085-.043-.15-.106-.196-.181l-.039-.079v-.001l-.005-.013-.004-.013v-.001l-.001-.001c-.006-.021-.011-.043-.015-.065l-.692-4.014c-.045-.261.133-.509.398-.555.261-.044.515.132.56.393l.443 2.567 3.296-6.563h-6.045c-.167 0-.322-.086-.411-.225-.089-.14-.099-.316-.026-.465l3.962-8.116c.116-.241.406-.341.649-.224z" transform="translate(-532 -556)"/>
        </g>
    </g>
</svg>
